<svg width="25" height="24" viewBox="0 0 25 24" fill="none" xmlns="http://www.w3.org/2000/svg">
<path d="M20.25 5.5L19.6303 15.5251C19.4719 18.0864 19.3928 19.3671 18.7508 20.2879C18.4333 20.7431 18.0247 21.1273 17.5507 21.416C16.5921 22 15.309 22 12.7427 22C10.1731 22 8.8883 22 7.92905 21.4149C7.4548 21.1257 7.046 20.7408 6.72868 20.2848C6.08688 19.3626 6.00945 18.0801 5.85461 15.5152L5.25 5.5" stroke="#001732" stroke-width="1.5" stroke-linecap="round"/>
<path d="M3.75 5.5H21.75M16.8057 5.5L16.1231 4.09173C15.6696 3.15626 15.4428 2.68852 15.0517 2.39681C14.965 2.3321 14.8731 2.27454 14.777 2.2247C14.3439 2 13.8241 2 12.7845 2C11.7188 2 11.186 2 10.7457 2.23412C10.6481 2.28601 10.555 2.3459 10.4673 2.41317C10.0716 2.7167 9.85063 3.20155 9.40861 4.17126L8.80292 5.5" stroke="#001732" stroke-width="1.5" stroke-linecap="round"/>
</svg>
