<svg width="25" height="25" viewBox="0 0 25 25" fill="none" xmlns="http://www.w3.org/2000/svg">
<path d="M14.6163 5.1969C15.287 4.47027 15.6223 4.10696 15.9787 3.89504C16.8384 3.38368 17.8972 3.36778 18.7714 3.85309C19.1336 4.05422 19.4792 4.40731 20.1705 5.11348C20.8618 5.81966 21.2075 6.17275 21.4043 6.54284C21.8794 7.43581 21.8638 8.51731 21.3633 9.39563C21.1558 9.75964 20.8001 10.1022 20.0889 10.7873L11.6255 18.9389C10.2776 20.2372 9.6036 20.8864 8.76125 21.2153C7.91891 21.5444 6.99288 21.5202 5.14082 21.4717L4.88884 21.4652C4.32502 21.4504 4.0431 21.443 3.87923 21.257C3.71535 21.0711 3.73773 20.7839 3.78247 20.2096L3.80677 19.8977C3.93271 18.2811 3.99567 17.4729 4.31134 16.7464C4.627 16.0198 5.1715 15.4299 6.26049 14.25L14.6163 5.1969Z" stroke="black" stroke-width="1.5" stroke-linejoin="round"/>
<path d="M13.65 5.3L19.95 11.6" stroke="black" stroke-width="1.5" stroke-linejoin="round"/>
<path d="M14.55 21.5H21.75" stroke="black" stroke-width="1.5" stroke-linecap="round" stroke-linejoin="round"/>
</svg>
