<svg width="42" height="32" viewBox="0 0 42 32" fill="none" xmlns="http://www.w3.org/2000/svg">
<path d="M26.7439 26.7483C26.7439 26.7483 26.7439 24.5449 24.5422 24.5449H9.65131C9.65131 24.5449 7.44959 24.5449 7.44959 22.3415V2.1596C7.44959 2.1596 7.44959 0.00317383 5.29478 0.00317383H2.20173C2.20173 0.00317383 0 0.00317363 0 2.20654V29.7967C0 29.7967 0 32 2.20173 32H24.5432C24.5432 32 26.7449 32 26.7449 29.7967V26.7483H26.7439ZM39.6738 32C39.6738 32 41.8755 32 41.8755 29.7967V2.20654C41.8755 2.20654 41.8755 0.00317383 39.6738 0.00317383H17.2865C17.2865 0.00317383 15.1317 0.00317383 15.1317 2.1596V5.25496C15.1317 5.25496 15.1317 7.45833 17.3334 7.45833H32.2242C32.2242 7.45833 34.4259 7.45833 34.4259 9.6617V24.186C34.4259 24.186 34.4259 24.5449 34.0673 24.5449H32.3451C32.3451 24.5449 30.2633 24.5449 30.2633 26.7483V30.5624C30.2633 30.5624 30.2633 32 31.6998 32H39.6738Z" fill="#AC167C"/>
<path d="M16.2327 12.2749C16.2327 12.2749 15.1318 12.2749 15.1318 13.3766V18.6284C15.1318 18.6284 15.1318 19.7301 16.2327 19.7301H25.6432C25.6432 19.7301 26.7441 19.7301 26.7441 18.6284V13.3766C26.7441 13.3766 26.7441 12.2749 25.6432 12.2749H16.2327Z" fill="#EE8A19"/>
<path d="M16.2327 24.5459C16.2327 24.5459 15.1318 24.5459 15.1318 25.6476V30.8994C15.1318 30.8994 15.1318 32.0011 16.2327 32.0011H25.6432C25.6432 32.0011 26.7441 32.0011 26.7441 30.8994V25.6476C26.7441 25.6476 26.7441 24.5459 25.6432 24.5459H16.2327Z" fill="#EE8A19"/>
<path d="M16.2327 0.00415039C16.2327 0.00415039 15.1318 0.00415039 15.1318 1.10584V6.35762C15.1318 6.35762 15.1318 7.45931 16.2327 7.45931H25.6432C25.6432 7.45931 26.7441 7.45931 26.7441 6.35762V1.10479C26.7441 1.10479 26.7441 0.00415039 25.6432 0.00415039H16.2327Z" fill="#EE8A19"/>
</svg>
