<svg width="25" height="24" viewBox="0 0 25 24" fill="none" xmlns="http://www.w3.org/2000/svg">
<path d="M7.32757 15.4816C5.9128 16.324 2.20336 18.0441 4.46266 20.1966C5.56631 21.248 6.79549 22 8.34087 22H17.1591C18.7045 22 19.9337 21.248 21.0373 20.1966C23.2966 18.0441 19.5872 16.324 18.1724 15.4816C14.8548 13.5061 10.6452 13.5061 7.32757 15.4816Z" stroke="#001732" stroke-width="1.5" stroke-linecap="round" stroke-linejoin="round"/>
<path d="M17.25 6.5C17.25 8.98528 15.2353 11 12.75 11C10.2647 11 8.25 8.98528 8.25 6.5C8.25 4.01472 10.2647 2 12.75 2C15.2353 2 17.25 4.01472 17.25 6.5Z" stroke="#001732" stroke-width="1.5"/>
</svg>
