<svg width="25" height="24" viewBox="0 0 25 24" fill="none" xmlns="http://www.w3.org/2000/svg">
<path d="M14.7117 3.44418L16.4715 6.99288C16.7115 7.48687 17.3514 7.9607 17.8914 8.05143L21.081 8.58575C23.1208 8.92853 23.6008 10.4206 22.1309 11.8925L19.6512 14.3927C19.2312 14.8161 19.0013 15.6327 19.1312 16.2175L19.8412 19.3125C20.4011 21.7623 19.1112 22.71 16.9615 21.4296L13.9718 19.6452C13.4319 19.3226 12.542 19.3226 11.992 19.6452L9.0024 21.4296C6.86263 22.71 5.56278 21.7522 6.12272 19.3125L6.83264 16.2175C6.96262 15.6327 6.73265 14.8161 6.31269 14.3927L3.83297 11.8925C2.37313 10.4206 2.84308 8.92853 4.88285 8.58575L8.0725 8.05143C8.60244 7.9607 9.24237 7.48687 9.48234 6.99288L11.2421 3.44418C12.202 1.51861 13.7618 1.51861 14.7117 3.44418Z" fill="#001732" stroke="#001732" stroke-width="1.5" stroke-linecap="round" stroke-linejoin="round"/>
</svg>
