<svg width="16" height="16" viewBox="0 0 16 16" fill="none" xmlns="http://www.w3.org/2000/svg">
<path d="M9.15177 2.29482L10.325 4.66062C10.485 4.98994 10.9116 5.30583 11.2716 5.36632L13.398 5.72253C14.7578 5.95105 15.0778 6.94576 14.0979 7.92703L12.4448 9.59383C12.1648 9.8761 12.0115 10.4205 12.0981 10.8104L12.5714 12.8737C12.9447 14.5069 12.0848 15.1387 10.6516 14.2851L8.65851 13.0955C8.29857 12.8804 7.70531 12.8804 7.33864 13.0955L5.34555 14.2851C3.91904 15.1387 3.05247 14.5002 3.42577 12.8737L3.89905 10.8104C3.9857 10.4205 3.83239 9.8761 3.55241 9.59383L1.89927 7.92703C0.92604 6.94576 1.23934 5.95105 2.59919 5.72253L4.72562 5.36632C5.07891 5.30583 5.50553 4.98994 5.66551 4.66062L6.83871 2.29482C7.47864 1.0111 8.51851 1.0111 9.15177 2.29482Z" fill="#018850" stroke="#018850" stroke-width="1.5" stroke-linecap="round" stroke-linejoin="round"/>
</svg>
